<svg width="46" height="57" viewBox="0 0 46 57" fill="none" xmlns="http://www.w3.org/2000/svg">
<path d="M9.53072e-08 23C4.26704e-08 10.2974 10.2975 -4.26705e-08 23 -9.53073e-08V-9.53073e-08C35.7025 -1.47944e-07 46 10.2975 46 23L46 56.8661L2.35642e-07 56.8661L9.53072e-08 23Z" fill="#46EBB0"/>
<path d="M23.7155 16.3856C23.7155 18.0325 22.38 16.3856 20.7317 16.3856C19.0849 16.3856 17.7478 18.0325 17.7478 16.3856C17.7478 14.7388 19.0833 13.4018 20.7317 13.4018C22.38 13.4018 23.7155 14.7373 23.7155 16.3856Z" fill="white"/>
<path d="M33.1103 16.3856C33.1103 18.0325 31.7748 16.3856 30.1264 16.3856C28.4796 16.3856 27.1426 18.0325 27.1426 16.3856C27.1426 14.7388 28.4781 13.4018 30.1264 13.4018C31.7748 13.4018 33.1103 14.7373 33.1103 16.3856Z" fill="white"/>
<path d="M30.1201 22.7075C30.1201 25.7374 27.6637 28.1922 24.6354 28.1922C21.607 28.1922 19.1506 25.7358 19.1506 22.7075C19.1506 19.6792 21.607 22.9191 24.6354 22.9191C27.6637 22.9191 30.1201 19.6792 30.1201 22.7075Z" fill="white"/>
</svg>
