<svg width="172" height="172" viewBox="0 0 172 172" fill="none" xmlns="http://www.w3.org/2000/svg">
<path d="M168.302 173.346C134.779 203.918 83.5158 202.287 53.8018 169.704C24.0878 137.121 27.1753 85.9251 60.6979 55.3539C94.2205 24.7828 145.484 26.4135 175.198 58.9962C204.912 91.579 201.824 142.775 168.302 173.346Z" fill="#F472B7"/>
<path d="M115.274 99.043C115.274 102.534 112.444 99.043 108.95 99.043C105.459 99.043 102.625 102.534 102.625 99.043C102.625 95.5524 105.456 92.7183 108.95 92.7183C112.444 92.7183 115.274 95.5491 115.274 99.043Z" fill="white"/>
<path d="M135.188 99.043C135.188 102.534 132.357 99.043 128.863 99.043C125.372 99.043 122.538 102.534 122.538 99.043C122.538 95.5524 125.369 92.7183 128.863 92.7183C132.357 92.7183 135.188 95.5491 135.188 99.043Z" fill="white"/>
<path d="M128.85 112.443C128.85 118.865 123.643 124.069 117.224 124.069C110.806 124.069 105.599 118.862 105.599 112.443C105.599 106.024 110.806 112.892 117.224 112.892C123.643 112.892 128.85 106.024 128.85 112.443Z" fill="white"/>
</svg>
