<svg width="85" height="115" viewBox="0 0 85 115" fill="none" xmlns="http://www.w3.org/2000/svg">
<path d="M54 86.5178C37.2687 101.776 11.683 100.962 -3.14737 84.6999C-17.9777 68.4377 -16.4367 42.8855 0.29451 27.6273C17.0258 12.3692 42.6115 13.1831 57.4418 29.4452C72.2722 45.7074 70.7312 71.2596 54 86.5178Z" fill="#FAD34F"/>
<path d="M44.5057 65.1468C44.5057 67.1899 42.8487 65.1468 40.8036 65.1468C38.7604 65.1468 37.1016 67.1899 37.1016 65.1468C37.1016 63.1036 38.7585 61.4447 40.8036 61.4447C42.8487 61.4447 44.5057 63.1017 44.5057 65.1468Z" fill="white"/>
<path d="M56.1617 65.1468C56.1617 67.1899 54.5047 65.1468 52.4596 65.1468C50.4165 65.1468 48.7576 67.1899 48.7576 65.1468C48.7576 63.1036 50.4146 61.4447 52.4596 61.4447C54.5047 61.4447 56.1617 63.1017 56.1617 65.1468Z" fill="white"/>
<path d="M52.452 72.9903C52.452 76.7494 49.4043 79.7951 45.6471 79.7951C41.8899 79.7951 38.8423 76.7475 38.8423 72.9903C38.8423 69.2331 41.8899 73.2528 45.6471 73.2528C49.4043 73.2528 52.452 69.2331 52.452 72.9903Z" fill="white"/>
</svg>
